HIERARCHY
ROOT Hips
{
	OFFSET 0.000000 0.000000 0.000000
	CHANNELS 6 Xposition Yposition Zposition Xrotation Yrotation Zrotation
	JOINT LeftUpLeg_virtual
	{
		OFFSET 0.000000 0.000000 0.000000
		CHANNELS 3 Xrotation Yrotation Zrotation
		JOINT LeftUpLeg
		{
			OFFSET 15.427100 -6.655098 0.678600
			CHANNELS 3 Xrotation Yrotation Zrotation
			JOINT LeftLeg
			{
				OFFSET 4.081073 -39.591068 13.024000
				CHANNELS 3 Xrotation Yrotation Zrotation
				JOINT LeftFoot
				{
					OFFSET -4.081074 -37.707932 -15.979700
					CHANNELS 3 Xrotation Yrotation Zrotation
					JOINT LeftToeBase
					{
						OFFSET 5.346399 -15.068900 20.645000
						CHANNELS 3 Xrotation Yrotation Zrotation
						JOINT LeftToe_End
						{
							OFFSET 2.754700 0.931300 11.300900
							CHANNELS 3 Xrotation Yrotation Zrotation
							End Site
							{
								OFFSET 0 0 0
							}
						}
					}
				}
			}
		}
	}
	JOINT RightUpLeg_virtual
	{
		OFFSET 0.000000 0.000000 0.000000
		CHANNELS 3 Xrotation Yrotation Zrotation
		JOINT RightUpLeg
		{
			OFFSET -15.569500 -6.655098 0.678600
			CHANNELS 3 Xrotation Yrotation Zrotation
			JOINT RightLeg
			{
				OFFSET -4.081825 -39.591045 13.023800
				CHANNELS 3 Xrotation Yrotation Zrotation
				JOINT RightFoot
				{
					OFFSET 4.081824 -37.707954 -15.979600
					CHANNELS 3 Xrotation Yrotation Zrotation
					JOINT RightToeBase
					{
						OFFSET -5.346400 -15.068900 20.645000
						CHANNELS 3 Xrotation Yrotation Zrotation
						JOINT RightToe_End
						{
							OFFSET -2.754700 0.931300 11.300900
							CHANNELS 3 Xrotation Yrotation Zrotation
							End Site
							{
								OFFSET 0 0 0
							}
						}
					}
				}
			}
		}
	}
	JOINT Spine_virtual
	{
		OFFSET 0.000000 0.000000 0.000000
		CHANNELS 3 Xrotation Yrotation Zrotation
		JOINT Spine
		{
			OFFSET -0.279200 12.230698 -2.892100
			CHANNELS 3 Xrotation Yrotation Zrotation
			JOINT Spine1
			{
				OFFSET -0.232667 10.192268 -1.242267
				CHANNELS 3 Xrotation Yrotation Zrotation
				JOINT Spine1_split
				{
					OFFSET -0.232667 10.192268 -1.242267
					CHANNELS 3 Xrotation Yrotation Zrotation
					JOINT Spine2
					{
						OFFSET -0.232667 10.192268 -1.242267
						CHANNELS 3 Xrotation Yrotation Zrotation
						JOINT Neck_virtual
						{
							OFFSET 0.000000 0.000000 0.000000
							CHANNELS 3 Xrotation Yrotation Zrotation
							JOINT Neck
							{
								OFFSET -0.418800 17.814194 8.416900
								CHANNELS 3 Xrotation Yrotation Zrotation
								JOINT Head
								{
									OFFSET 0.000000 7.031097 3.806800
									CHANNELS 3 Xrotation Yrotation Zrotation
									JOINT HeadTop_End
									{
										OFFSET 0.000000 24.646606 12.978600
										CHANNELS 3 Xrotation Yrotation Zrotation
										End Site
										{
											OFFSET 0 0 0
										}
									}
								}
							}
						}
						JOINT LeftShoulder_virtual
						{
							OFFSET 0.000000 0.000000 0.000000
							CHANNELS 3 Xrotation Yrotation Zrotation
							JOINT LeftShoulder
							{
								OFFSET 8.476499 7.247704 -3.868750
								CHANNELS 3 Xrotation Yrotation Zrotation
								JOINT LeftShoulder_split
								{
									OFFSET 8.476499 7.247704 -3.868750
									CHANNELS 3 Xrotation Yrotation Zrotation
									JOINT LeftArm
									{
										OFFSET 9.308998 -2.777710 0.208600
										CHANNELS 3 Xrotation Yrotation Zrotation
										JOINT LeftForeArm
										{
											OFFSET 29.972298 0.000000 0.000000
											CHANNELS 3 Xrotation Yrotation Zrotation
											JOINT LeftHand
											{
												OFFSET 26.026505 0.000000 0.000000
												CHANNELS 3 Xrotation Yrotation Zrotation
												End Site
												{
													OFFSET 0 0 0
												}
											}
										}
									}
								}
							}
						}
						JOINT RightShoulder_virtual
						{
							OFFSET 0.000000 0.000000 0.000000
							CHANNELS 3 Xrotation Yrotation Zrotation
							JOINT RightShoulder
							{
								OFFSET -7.570500 7.247704 -3.868750
								CHANNELS 3 Xrotation Yrotation Zrotation
								JOINT RightShoulder_split
								{
									OFFSET -7.570500 7.247704 -3.868750
									CHANNELS 3 Xrotation Yrotation Zrotation
									JOINT RightArm
									{
										OFFSET -9.308998 -2.777710 0.208500
										CHANNELS 3 Xrotation Yrotation Zrotation
										JOINT RightForeArm
										{
											OFFSET -29.972300 0.000000 0.000000
											CHANNELS 3 Xrotation Yrotation Zrotation
											JOINT RightHand
											{
												OFFSET -26.026505 0.000000 0.000000
												CHANNELS 3 Xrotation Yrotation Zrotation
												End Site
												{
													OFFSET 0 0 0
												}
											}
										}
									}
								}
							}
						}
					}
				}
			}
		}
	}
}
MOTION
Frames: 7
Frame Time: 0.03333333
-5.160308 72.516006 3.319012 0.000000 0.000000 0.000000 7.162847 -58.886517 1.511881 -52.978062 -18.103956 34.945748 35.131338 -10.841269 -1.769424 23.251938 1.239565 -10.192869 -0.000000 -0.000009 -0.000004 0.000000 0.000000 0.000000 7.162847 -58.886517 1.511881 -47.591030 -0.133842 -21.088356 59.684495 5.596331 2.161570 -6.504372 -3.072469 11.764258 -10.353143 -0.000007 -0.000001 0.000000 0.000000 0.000000 7.162847 -58.886517 1.511881 5.120609 10.451925 -0.701050 6.079589 5.798316 -0.521033 0.000000 0.000000 0.000000 0.000000 0.000000 0.000000 5.085127 16.136078 1.189171 6.289641 5.421245 -4.908951 -11.393627 17.889739 5.359092 0.000000 0.000000 0.000000 5.085127 16.136078 1.189171 3.544250 4.756011 -11.623017 0.000000 0.000000 0.000000 -54.038838 -33.116418 -50.381548 0.000251 -81.882357 0.000282 0.000000 0.000000 0.000000 5.085127 16.136078 1.189171 -14.733703 2.115965 -4.463087 0.000000 0.000000 0.000000 -107.662455 41.165960 127.346487 -0.000001 29.080729 -0.000003 0.000000 0.000000 0.000000 
-5.702188 75.412193 -4.720470 0.000000 0.000000 0.000000 11.030303 -61.318563 3.339761 -58.581125 -16.397081 27.949891 49.884485 -5.437329 -1.406032 9.509432 0.736078 -9.405889 -0.790463 -0.000008 0.000001 0.000000 0.000000 0.000000 11.030303 -61.318563 3.339761 -51.680415 -5.865521 -12.120330 56.188404 1.756974 0.621123 -0.194617 0.428624 9.577617 -9.252492 -0.000005 -0.000006 0.000000 0.000000 0.000000 11.030303 -61.318563 3.339761 5.154176 10.489106 0.693537 6.308407 5.733788 0.124733 0.000000 0.000000 0.000000 0.000000 0.000000 0.000000 5.204269 16.033843 1.859610 6.010207 5.497583 -4.746236 -12.496676 18.583685 4.459503 0.000000 0.000000 0.000000 5.204269 16.033843 1.859610 3.342831 3.885600 -11.068017 0.000000 0.000000 0.000000 -52.875793 -31.812398 -49.380628 0.000027 -83.745359 -0.000011 0.000000 0.000000 0.000000 5.204269 16.033843 1.859610 -14.973894 4.793927 -4.441298 0.000000 0.000000 0.000000 -102.180750 44.066789 122.304291 -0.000002 35.490045 -0.000010 0.000000 0.000000 0.000000 
-6.335704 79.296455 -14.208282 0.000000 0.000000 0.000000 18.299665 -65.371980 8.930170 -62.370883 -9.768590 20.570612 55.628804 -3.711404 -0.844679 3.644968 0.465044 -11.241167 -0.224713 0.000023 0.000003 0.000000 0.000000 0.000000 18.299665 -65.371980 8.930170 -53.492477 -10.020850 -4.010020 50.540272 1.081499 -0.791019 0.702178 2.751617 20.928362 -5.131130 0.001942 -0.274748 0.000000 0.000000 0.000000 18.299665 -65.371980 8.930170 4.931918 10.982242 0.954639 6.102145 6.417214 0.514766 0.000000 0.000000 0.000000 0.000000 0.000000 0.000000 4.918149 16.654294 2.295242 5.970360 5.433339 -4.378246 -13.661101 18.875863 3.950044 0.000000 0.000000 0.000000 4.918149 16.654294 2.295242 3.417889 3.714094 -11.398307 0.000000 0.000000 0.000000 -50.782351 -31.863594 -46.590284 0.001558 -85.111718 0.001579 0.000000 0.000000 0.000000 4.918149 16.654294 2.295242 -15.100654 8.148893 -3.712544 0.000000 0.000000 0.000000 -96.287117 45.640321 117.417154 -0.000005 39.987537 -0.000003 0.000000 0.000000 0.000000 
-7.280683 81.882942 -24.066925 0.000000 0.000000 0.000000 26.097063 -69.716601 15.909520 -64.831568 -0.331827 14.652950 55.033194 -4.597435 -0.154686 6.667310 -0.331243 -16.587294 1.512193 -0.000018 -0.000006 0.000000 0.000000 0.000000 26.097063 -69.716601 15.909520 -51.487540 -10.408104 -0.681033 45.567648 -0.417229 -0.154765 1.776717 2.150211 26.147311 -3.740852 0.090080 -1.860848 0.000000 0.000000 0.000000 26.097063 -69.716601 15.909520 4.766218 11.984574 1.122148 5.938461 7.371506 0.634043 0.000000 0.000000 0.000000 0.000000 0.000000 0.000000 4.718939 17.582304 2.448580 6.178262 5.120945 -4.209295 -13.759383 18.080978 3.551949 0.000000 0.000000 0.000000 4.718939 17.582304 2.448580 3.616896 3.702313 -12.152607 0.000000 0.000000 0.000000 -50.517636 -32.346646 -45.002364 0.000421 -84.349271 0.000451 0.000000 0.000000 0.000000 4.718939 17.582304 2.448580 -15.231134 11.787419 -3.124258 0.000000 0.000000 0.000000 -92.063792 46.117106 113.129017 -0.000008 41.336001 0.000012 0.000000 0.000000 0.000000 
-8.318254 81.722321 -33.846954 0.000000 0.000000 0.000000 30.454902 -73.289856 19.919137 -64.735392 7.628060 8.385674 52.533031 -3.694117 1.374568 10.267038 -3.328731 -21.394191 -6.773331 -0.699694 5.114691 0.000000 0.000000 0.000000 30.454902 -73.289856 19.919137 -47.808302 -9.389651 -1.376074 51.009758 -4.051798 0.780070 -3.899006 -3.569827 30.133364 -4.344312 0.113246 -2.076908 0.000000 0.000000 0.000000 30.454902 -73.289856 19.919137 4.674906 13.118101 2.219907 6.002001 7.941447 0.980751 0.000000 0.000000 0.000000 0.000000 0.000000 0.000000 4.701186 18.169866 2.813333 6.590858 4.714445 -4.493884 -12.566629 17.121133 2.048015 0.000000 0.000000 0.000000 4.701186 18.169866 2.813333 3.928010 3.896558 -13.253681 0.000000 0.000000 0.000000 -52.337001 -32.572253 -46.006156 0.000348 -82.029097 0.000355 0.000000 0.000000 0.000000 4.701186 18.169866 2.813333 -15.314913 15.159890 -3.231116 0.000000 0.000000 0.000000 -90.279508 46.659174 110.008509 0.000018 40.043022 -0.000014 0.000000 0.000000 0.000000 
-9.035439 79.777260 -43.533325 0.000000 0.000000 0.000000 32.545674 -76.366856 22.030365 -63.235476 10.959615 1.546920 50.984654 -0.435791 2.819888 9.183142 -6.433116 -15.613182 -4.732367 -0.022018 0.902024 0.000000 0.000000 0.000000 32.545674 -76.366856 22.030365 -43.620942 -8.850142 -3.866535 60.158619 -6.289943 0.700743 -12.010978 -8.752428 14.530918 -1.889323 0.000009 -0.000002 0.000000 0.000000 0.000000 32.545674 -76.366856 22.030365 4.541003 13.583514 3.148999 5.949868 8.183470 1.725804 0.000000 0.000000 0.000000 0.000000 0.000000 0.000000 4.503204 18.410500 3.592008 7.038407 4.510238 -4.978847 -11.147587 16.981971 0.159909 0.000000 0.000000 0.000000 4.503204 18.410500 3.592008 4.452929 4.765865 -14.888662 0.000000 0.000000 0.000000 -54.297736 -32.276537 -47.931344 -0.000237 -80.137831 -0.000244 0.000000 0.000000 0.000000 4.503204 18.410500 3.592008 -15.255660 18.362462 -3.596187 0.000000 0.000000 0.000000 -90.091691 47.839287 108.244695 0.000000 37.765154 -0.000007 0.000000 0.000000 0.000000 
-9.916178 76.940483 -53.468491 0.000000 0.000000 0.000000 41.036569 -80.191776 31.034915 -63.658012 9.680419 -0.696653 51.787054 1.149611 2.847473 7.045732 -4.980850 -2.156961 -7.208593 0.000015 -0.000006 0.000000 0.000000 0.000000 41.036569 -80.191776 31.034915 -40.371595 -6.554967 -9.777291 65.290092 -4.883907 0.834575 -12.320982 -9.827000 8.602662 -2.813525 0.000009 0.000004 0.000000 0.000000 0.000000 41.036569 -80.191776 31.034915 4.404138 13.775204 2.616546 5.634214 8.844318 2.402320 0.000000 0.000000 0.000000 0.000000 0.000000 0.000000 4.057377 19.023086 4.335605 7.232105 4.426666 -5.041890 -10.158968 17.202542 -0.724158 0.000000 0.000000 0.000000 4.057377 19.023086 4.335605 4.900071 5.710065 -16.126189 0.000000 0.000000 0.000000 -55.332052 -31.451235 -49.347075 0.000332 -79.402957 0.000326 0.000000 0.000000 0.000000 4.057377 19.023086 4.335605 -15.188338 20.678557 -3.406673 0.000000 0.000000 0.000000 -90.022583 48.239796 107.737416 -0.000001 35.788661 0.000004 0.000000 0.000000 0.000000 
